<svg width="24" height="24" viewBox="0 0 24 24" fill="none" xmlns="http://www.w3.org/2000/svg">
<path d="M20 0H4C2.93954 0.0013231 1.92289 0.423175 1.17303 1.17303C0.423175 1.92289 0.0013231 2.93954 0 4L0 20C0.0013231 21.0605 0.423175 22.0771 1.17303 22.827C1.92289 23.5768 2.93954 23.9987 4 24H20C21.0605 23.9987 22.0771 23.5768 22.827 22.827C23.5768 22.0771 23.9987 21.0605 24 20V4C23.9987 2.93954 23.5768 1.92289 22.827 1.17303C22.0771 0.423175 21.0605 0.0013231 20 0V0ZM7.5 18C7.10218 18 6.72064 17.842 6.43934 17.5607C6.15804 17.2794 6 16.8978 6 16.5C6 16.1022 6.15804 15.7206 6.43934 15.4393C6.72064 15.158 7.10218 15 7.5 15C7.89782 15 8.27936 15.158 8.56066 15.4393C8.84196 15.7206 9 16.1022 9 16.5C9 16.8978 8.84196 17.2794 8.56066 17.5607C8.27936 17.842 7.89782 18 7.5 18ZM7.5 9C7.10218 9 6.72064 8.84196 6.43934 8.56066C6.15804 8.27936 6 7.89782 6 7.5C6 7.10218 6.15804 6.72064 6.43934 6.43934C6.72064 6.15804 7.10218 6 7.5 6C7.89782 6 8.27936 6.15804 8.56066 6.43934C8.84196 6.72064 9 7.10218 9 7.5C9 7.89782 8.84196 8.27936 8.56066 8.56066C8.27936 8.84196 7.89782 9 7.5 9ZM12 13.5C11.6022 13.5 11.2206 13.342 10.9393 13.0607C10.658 12.7794 10.5 12.3978 10.5 12C10.5 11.6022 10.658 11.2206 10.9393 10.9393C11.2206 10.658 11.6022 10.5 12 10.5C12.3978 10.5 12.7794 10.658 13.0607 10.9393C13.342 11.2206 13.5 11.6022 13.5 12C13.5 12.3978 13.342 12.7794 13.0607 13.0607C12.7794 13.342 12.3978 13.5 12 13.5ZM16.5 18C16.1022 18 15.7206 17.842 15.4393 17.5607C15.158 17.2794 15 16.8978 15 16.5C15 16.1022 15.158 15.7206 15.4393 15.4393C15.7206 15.158 16.1022 15 16.5 15C16.8978 15 17.2794 15.158 17.5607 15.4393C17.842 15.7206 18 16.1022 18 16.5C18 16.8978 17.842 17.2794 17.5607 17.5607C17.2794 17.842 16.8978 18 16.5 18ZM16.5 9C16.1022 9 15.7206 8.84196 15.4393 8.56066C15.158 8.27936 15 7.89782 15 7.5C15 7.10218 15.158 6.72064 15.4393 6.43934C15.7206 6.15804 16.1022 6 16.5 6C16.8978 6 17.2794 6.15804 17.5607 6.43934C17.842 6.72064 18 7.10218 18 7.5C18 7.89782 17.842 8.27936 17.5607 8.56066C17.2794 8.84196 16.8978 9 16.5 9Z" fill="#1F2632"/>
</svg>
